<?xml version="1.0" standalone="no"?><!DOCTYPE svg PUBLIC "-//W3C//DTD SVG 1.1//EN" "http://www.w3.org/Graphics/SVG/1.1/DTD/svg11.dtd"><svg t="1709523373931" class="icon" viewBox="0 0 1024 1024" version="1.1" xmlns="http://www.w3.org/2000/svg" p-id="3653" width="48" height="48" xmlns:xlink="http://www.w3.org/1999/xlink"><path d="M512.2 674.2c-87.3 0-158.4-71-158.4-158.4s71-158.4 158.4-158.4 158.4 71 158.4 158.4-71.1 158.4-158.4 158.4z m0-286.7c-70.8 0-128.4 57.6-128.4 128.4s57.6 128.4 128.4 128.4 128.4-57.6 128.4-128.4S583 387.5 512.2 387.5z" p-id="3654"></path><path d="M621.1 913.5c-1.9 0-3.9-0.4-5.7-1.1-4.3-1.8-7.5-5.4-8.8-9.9-11.7-42.8-50.8-72.6-95.2-72.6-44.4 0-83.5 29.9-95.2 72.6-1.2 4.5-4.5 8.2-8.8 9.9-4.3 1.8-9.2 1.4-13.2-0.9l-169.6-99.3c-4.1-2.4-6.8-6.5-7.3-11.2-0.5-4.7 1.2-9.4 4.6-12.6 32.1-30.5 39.9-79.1 18.9-118.2-21-39.1-65.8-59.4-109-49.4-4.5 1-9.1 0-12.7-2.9-3.6-2.8-5.7-7.2-5.7-11.7V420.4c0-4.6 2.1-8.9 5.7-11.7 3.6-2.8 8.3-3.9 12.7-2.9 43.2 10 88-10.4 109-49.4 21-39.1 13.2-87.7-18.9-118.2-3.4-3.2-5.1-7.9-4.6-12.6 0.5-4.7 3.3-8.8 7.3-11.2L394.3 115c4-2.4 8.9-2.7 13.2-0.9s7.6 5.4 8.8 9.9c11.7 42.8 50.8 72.6 95.2 72.6 44.4 0 83.5-29.9 95.2-72.6 1.2-4.5 4.5-8.2 8.8-9.9 4.3-1.8 9.2-1.4 13.2 0.9l171.2 99.3c4.1 2.4 6.8 6.5 7.4 11.2 0.6 4.7-1.1 9.4-4.6 12.6-32.1 30.5-39.9 79.1-18.9 118.2 21 39.1 65.8 59.4 109 49.4 4.5-1 9.1 0 12.7 2.9 3.6 2.8 5.7 7.2 5.7 11.7V606c0 4.6-2.1 8.9-5.7 11.7-3.6 2.8-8.3 3.9-12.7 2.9-43.2-10-88 10.4-109 49.4s-13.2 87.7 18.9 118.2c3.4 3.3 5.1 7.9 4.6 12.6s-3.3 8.9-7.4 11.2l-171.2 99.3c-2.4 1.5-5 2.2-7.6 2.2zM511.5 799.8c51.4 0 97.4 30.7 117.7 76.7l139.7-81c-30.6-39.6-35.7-94.5-11.5-139.6 24.4-45.4 73.5-71.4 123.8-67.3V437.9c-50.3 4.1-99.4-21.9-123.8-67.3-24.3-45.1-19.1-100 11.5-139.6l-139.7-81c-20.3 45.9-66.3 76.7-117.7 76.7-51.4 0-97.4-30.7-117.7-76.6l-138.1 80.8c30.6 39.6 35.8 94.5 11.5 139.6-22.7 42.3-66.9 67.8-113.4 67.8-3.5 0-6.9-0.1-10.4-0.4v150.7c50.3-4.1 99.4 21.9 123.8 67.3 24.3 45.1 19.1 100-11.5 139.6l138.1 80.8c20.3-45.8 66.3-76.5 117.7-76.5z" p-id="3655"></path></svg>